<svg width="800" height="280" xmlns="http://www.w3.org/2000/svg">
  <defs>
    <!-- Sky gradient - night -->
    <linearGradient id="nightSky" x1="0" y1="0" x2="0" y2="1">
      <stop offset="0%"   stop-color="#020818"/>
      <stop offset="40%"  stop-color="#0a1628"/>
      <stop offset="75%"  stop-color="#0d2a0d"/>
      <stop offset="100%" stop-color="#1a3a0a"/>
    </linearGradient>
    <!-- Underground gradient -->
    <linearGradient id="underground" x1="0" y1="0" x2="0" y2="1">
      <stop offset="0%"   stop-color="#2a1a0a"/>
      <stop offset="100%" stop-color="#1a0d05"/>
    </linearGradient>
    <!-- Gold text gradient -->
    <linearGradient id="goldGrad" x1="0" y1="0" x2="0" y2="1">
      <stop offset="0%"   stop-color="#fff0a0"/>
      <stop offset="40%"  stop-color="#ffd700"/>
      <stop offset="100%" stop-color="#b8860b"/>
    </linearGradient>
    <!-- Blue text gradient -->
    <linearGradient id="blueGrad" x1="0" y1="0" x2="1" y2="0">
      <stop offset="0%"   stop-color="#88ccff"/>
      <stop offset="100%" stop-color="#4488dd"/>
    </linearGradient>
    <!-- Lava glow -->
    <radialGradient id="lavaGlow" cx="50%" cy="50%" r="50%">
      <stop offset="0%"   stop-color="#ff6600" stop-opacity="0.8"/>
      <stop offset="100%" stop-color="#ff2200" stop-opacity="0"/>
    </radialGradient>
    <!-- Moon glow -->
    <radialGradient id="moonGlow" cx="50%" cy="50%" r="50%">
      <stop offset="0%"   stop-color="#e8e0c8" stop-opacity="0.4"/>
      <stop offset="100%" stop-color="#e8e0c8" stop-opacity="0"/>
    </radialGradient>
    <!-- Text glow filter -->
    <filter id="textGlow" x="-20%" y="-20%" width="140%" height="140%">
      <feGaussianBlur stdDeviation="4" result="blur"/>
      <feMerge>
        <feMergeNode in="blur"/>
        <feMergeNode in="blur"/>
        <feMergeNode in="SourceGraphic"/>
      </feMerge>
    </filter>
    <!-- Soft glow -->
    <filter id="softGlow" x="-30%" y="-30%" width="160%" height="160%">
      <feGaussianBlur stdDeviation="8" result="blur"/>
      <feMerge>
        <feMergeNode in="blur"/>
        <feMergeNode in="SourceGraphic"/>
      </feMerge>
    </filter>
    <!-- Pixel glow small -->
    <filter id="pixelGlow" x="-20%" y="-20%" width="140%" height="140%">
      <feGaussianBlur stdDeviation="2" result="blur"/>
      <feMerge>
        <feMergeNode in="blur"/>
        <feMergeNode in="SourceGraphic"/>
      </feMerge>
    </filter>
    <!-- Scanline pattern -->
    <pattern id="scanlines" x="0" y="0" width="1" height="3" patternUnits="userSpaceOnUse">
      <rect x="0" y="0" width="1" height="1" fill="black" opacity="0.08"/>
    </pattern>
  </defs>

  <!-- === SKY BACKGROUND === -->
  <rect width="800" height="180" fill="url(#nightSky)"/>

  <!-- Stars layer 1 - large -->
  <circle cx="15"  cy="12" r="1.5" fill="white" opacity="0.9"/>
  <circle cx="67"  cy="8"  r="1"   fill="white" opacity="0.7"/>
  <circle cx="134" cy="22" r="1.5" fill="white" opacity="0.8"/>
  <circle cx="198" cy="7"  r="1"   fill="#aaccff" opacity="0.9"/>
  <circle cx="245" cy="18" r="1.5" fill="white" opacity="0.6"/>
  <circle cx="312" cy="5"  r="1"   fill="white" opacity="0.8"/>
  <circle cx="378" cy="14" r="1.5" fill="#ffeeaa" opacity="0.9"/>
  <circle cx="423" cy="9"  r="1"   fill="white" opacity="0.7"/>
  <circle cx="489" cy="20" r="1.5" fill="white" opacity="0.8"/>
  <circle cx="556" cy="6"  r="1"   fill="#aaccff" opacity="0.9"/>
  <circle cx="601" cy="16" r="1.5" fill="white" opacity="0.6"/>
  <circle cx="667" cy="11" r="1"   fill="white" opacity="0.8"/>
  <circle cx="723" cy="4"  r="1.5" fill="white" opacity="0.9"/>
  <circle cx="778" cy="19" r="1"   fill="#ffeeaa" opacity="0.7"/>
  <!-- Stars layer 2 - small -->
  <circle cx="42"  cy="30" r="0.8" fill="white" opacity="0.5"/>
  <circle cx="89"  cy="42" r="0.8" fill="white" opacity="0.4"/>
  <circle cx="156" cy="35" r="0.8" fill="white" opacity="0.6"/>
  <circle cx="223" cy="48" r="0.8" fill="white" opacity="0.5"/>
  <circle cx="290" cy="28" r="0.8" fill="white" opacity="0.4"/>
  <circle cx="357" cy="38" r="0.8" fill="white" opacity="0.6"/>
  <circle cx="424" cy="32" r="0.8" fill="white" opacity="0.5"/>
  <circle cx="491" cy="44" r="0.8" fill="white" opacity="0.4"/>
  <circle cx="558" cy="26" r="0.8" fill="white" opacity="0.6"/>
  <circle cx="625" cy="40" r="0.8" fill="white" opacity="0.5"/>
  <circle cx="692" cy="33" r="0.8" fill="white" opacity="0.4"/>
  <circle cx="759" cy="46" r="0.8" fill="white" opacity="0.6"/>

  <!-- Moon with glow -->
  <circle cx="698" cy="45" r="40" fill="url(#moonGlow)"/>
  <circle cx="698" cy="45" r="24" fill="#d8d0b0" filter="url(#softGlow)"/>
  <circle cx="698" cy="45" r="24" fill="#d8d0b0"/>
  <!-- Moon craters -->
  <circle cx="690" cy="38" r="4" fill="#c0b898" opacity="0.6"/>
  <circle cx="706" cy="50" r="3" fill="#c0b898" opacity="0.5"/>
  <circle cx="694" cy="54" r="2" fill="#c0b898" opacity="0.4"/>
  <!-- Moon shadow to make crescent -->
  <circle cx="708" cy="40" r="20" fill="#0a1628"/>

  <!-- Floating island -->
  <ellipse cx="130" cy="75" rx="55" ry="14" fill="#4a7a28"/>
  <rect x="80"  y="70" width="100" height="10" fill="#3d6a22"/>
  <rect x="82"  y="68" width="96"  height="4"  fill="#5a9a32"/>
  <!-- Island dirt bottom -->
  <ellipse cx="130" cy="84" rx="52" ry="10" fill="#5c3a1a"/>
  <!-- Island house -->
  <rect x="108" y="52" width="20" height="18" fill="#8B6914"/>
  <rect x="106" y="48" width="24" height="6"  fill="#6b4a10"/>
  <rect x="113" y="57" width="6"  height="8"  fill="#4dabf7" opacity="0.6"/>
  <rect x="122" y="59" width="4"  height="4"  fill="#8B6914"/>
  <!-- Island tree -->
  <rect x="147" y="56" width="4" height="16" fill="#5c3a1a"/>
  <rect x="140" y="44" width="18" height="8"  fill="#2d6b1a"/>
  <rect x="142" y="38" width="14" height="8"  fill="#3a8a22"/>
  <rect x="144" y="32" width="10" height="8"  fill="#4aaa2a"/>
  <rect x="146" y="26" width="6"  height="8"  fill="#5acc32"/>

  <!-- === SURFACE LAYER === -->
  <!-- Back mountains / hills -->
  <!-- Mountain 1 -->
  <polygon points="0,160 60,100 120,160" fill="#1a2a1a" opacity="0.8"/>
  <polygon points="50,160 110,95 170,160" fill="#1e301e" opacity="0.7"/>
  <!-- Mountain 2 -->
  <polygon points="580,160 650,90 720,160" fill="#1a2a1a" opacity="0.8"/>
  <polygon points="630,160 700,85 770,160" fill="#1e301e" opacity="0.7"/>
  <polygon points="700,160 760,105 820,160" fill="#1a2a1a" opacity="0.6"/>

  <!-- Corruption biome hint (purple mist on left) -->
  <rect x="0" y="120" width="90" height="40" fill="#2a0a3a" opacity="0.4"/>
  <rect x="0" y="130" width="60" height="30" fill="#3a0a4a" opacity="0.3"/>

  <!-- Grass surface - main ground line -->
  <rect x="0"   y="160" width="800" height="120" fill="#3d2b1a"/>
  <!-- Grass top -->
  <rect x="0"   y="155" width="800" height="8"   fill="#3a7a22"/>
  <!-- Grass highlight -->
  <rect x="0"   y="153" width="800" height="4"   fill="#4a9a2a"/>

  <!-- Ground blocks pixel pattern -->
  <!-- Row 1 dirt blocks -->
  <rect x="0"   y="163" width="32" height="16" fill="#5c3a1a" stroke="#4a2e12" stroke-width="0.5"/>
  <rect x="32"  y="163" width="32" height="16" fill="#6b4520" stroke="#4a2e12" stroke-width="0.5"/>
  <rect x="64"  y="163" width="32" height="16" fill="#5c3a1a" stroke="#4a2e12" stroke-width="0.5"/>
  <rect x="96"  y="163" width="32" height="16" fill="#6b4520" stroke="#4a2e12" stroke-width="0.5"/>
  <rect x="128" y="163" width="32" height="16" fill="#5c3a1a" stroke="#4a2e12" stroke-width="0.5"/>
  <rect x="160" y="163" width="32" height="16" fill="#6b4520" stroke="#4a2e12" stroke-width="0.5"/>
  <rect x="192" y="163" width="32" height="16" fill="#5c3a1a" stroke="#4a2e12" stroke-width="0.5"/>
  <rect x="224" y="163" width="32" height="16" fill="#6b4520" stroke="#4a2e12" stroke-width="0.5"/>
  <rect x="256" y="163" width="32" height="16" fill="#5c3a1a" stroke="#4a2e12" stroke-width="0.5"/>
  <rect x="288" y="163" width="32" height="16" fill="#6b4520" stroke="#4a2e12" stroke-width="0.5"/>
  <rect x="320" y="163" width="32" height="16" fill="#5c3a1a" stroke="#4a2e12" stroke-width="0.5"/>
  <rect x="352" y="163" width="32" height="16" fill="#6b4520" stroke="#4a2e12" stroke-width="0.5"/>
  <rect x="384" y="163" width="32" height="16" fill="#5c3a1a" stroke="#4a2e12" stroke-width="0.5"/>
  <rect x="416" y="163" width="32" height="16" fill="#6b4520" stroke="#4a2e12" stroke-width="0.5"/>
  <rect x="448" y="163" width="32" height="16" fill="#5c3a1a" stroke="#4a2e12" stroke-width="0.5"/>
  <rect x="480" y="163" width="32" height="16" fill="#6b4520" stroke="#4a2e12" stroke-width="0.5"/>
  <rect x="512" y="163" width="32" height="16" fill="#5c3a1a" stroke="#4a2e12" stroke-width="0.5"/>
  <rect x="544" y="163" width="32" height="16" fill="#6b4520" stroke="#4a2e12" stroke-width="0.5"/>
  <rect x="576" y="163" width="32" height="16" fill="#5c3a1a" stroke="#4a2e12" stroke-width="0.5"/>
  <rect x="608" y="163" width="32" height="16" fill="#6b4520" stroke="#4a2e12" stroke-width="0.5"/>
  <rect x="640" y="163" width="32" height="16" fill="#5c3a1a" stroke="#4a2e12" stroke-width="0.5"/>
  <rect x="672" y="163" width="32" height="16" fill="#6b4520" stroke="#4a2e12" stroke-width="0.5"/>
  <rect x="704" y="163" width="32" height="16" fill="#5c3a1a" stroke="#4a2e12" stroke-width="0.5"/>
  <rect x="736" y="163" width="32" height="16" fill="#6b4520" stroke="#4a2e12" stroke-width="0.5"/>
  <rect x="768" y="163" width="32" height="16" fill="#5c3a1a" stroke="#4a2e12" stroke-width="0.5"/>

  <!-- Stone blocks underground row -->
  <rect x="0"   y="179" width="32" height="16" fill="#7a7a7a" stroke="#666" stroke-width="0.5"/>
  <rect x="32"  y="179" width="32" height="16" fill="#888"    stroke="#666" stroke-width="0.5"/>
  <rect x="64"  y="179" width="32" height="16" fill="#7a7a7a" stroke="#666" stroke-width="0.5"/>
  <rect x="96"  y="179" width="32" height="16" fill="#888"    stroke="#666" stroke-width="0.5"/>
  <rect x="128" y="179" width="32" height="16" fill="#7a7a7a" stroke="#666" stroke-width="0.5"/>
  <rect x="160" y="179" width="32" height="16" fill="#888"    stroke="#666" stroke-width="0.5"/>
  <rect x="192" y="179" width="32" height="16" fill="#7a7a7a" stroke="#666" stroke-width="0.5"/>
  <rect x="224" y="179" width="32" height="16" fill="#888"    stroke="#666" stroke-width="0.5"/>
  <rect x="256" y="179" width="32" height="16" fill="#7a7a7a" stroke="#666" stroke-width="0.5"/>
  <rect x="288" y="179" width="32" height="16" fill="#888"    stroke="#666" stroke-width="0.5"/>
  <rect x="320" y="179" width="32" height="16" fill="#7a7a7a" stroke="#666" stroke-width="0.5"/>
  <rect x="352" y="179" width="32" height="16" fill="#888"    stroke="#666" stroke-width="0.5"/>
  <rect x="384" y="179" width="32" height="16" fill="#7a7a7a" stroke="#666" stroke-width="0.5"/>
  <rect x="416" y="179" width="32" height="16" fill="#888"    stroke="#666" stroke-width="0.5"/>
  <rect x="448" y="179" width="32" height="16" fill="#7a7a7a" stroke="#666" stroke-width="0.5"/>
  <rect x="480" y="179" width="32" height="16" fill="#888"    stroke="#666" stroke-width="0.5"/>
  <rect x="512" y="179" width="32" height="16" fill="#7a7a7a" stroke="#666" stroke-width="0.5"/>
  <rect x="544" y="179" width="32" height="16" fill="#888"    stroke="#666" stroke-width="0.5"/>
  <rect x="576" y="179" width="32" height="16" fill="#7a7a7a" stroke="#666" stroke-width="0.5"/>
  <rect x="608" y="179" width="32" height="16" fill="#888"    stroke="#666" stroke-width="0.5"/>
  <rect x="640" y="179" width="32" height="16" fill="#7a7a7a" stroke="#666" stroke-width="0.5"/>
  <rect x="672" y="179" width="32" height="16" fill="#888"    stroke="#666" stroke-width="0.5"/>
  <rect x="704" y="179" width="32" height="16" fill="#7a7a7a" stroke="#666" stroke-width="0.5"/>
  <rect x="736" y="179" width="32" height="16" fill="#888"    stroke="#666" stroke-width="0.5"/>
  <rect x="768" y="179" width="32" height="16" fill="#7a7a7a" stroke="#666" stroke-width="0.5"/>

  <!-- Ore deposits in stone -->
  <rect x="36"  y="183" width="8" height="8" fill="#cc7722"/><!-- copper -->
  <rect x="140" y="181" width="8" height="8" fill="#88aacc"/><!-- iron -->
  <rect x="260" y="185" width="8" height="8" fill="#ddaa22"/><!-- gold -->
  <rect x="360" y="182" width="8" height="8" fill="#22bbaa"/><!-- emerald -->
  <rect x="500" y="184" width="8" height="8" fill="#cc2222"/><!-- ruby -->
  <rect x="620" y="181" width="8" height="8" fill="#4466ff"/><!-- sapphire -->
  <rect x="740" y="183" width="8" height="8" fill="#dddddd"/><!-- diamond -->

  <!-- Lava pool (bottom) -->
  <rect x="0" y="195" width="800" height="85" fill="#1a0800"/>
  <!-- Lava surface -->
  <rect x="0"   y="196" width="800" height="6" fill="#cc3300"/>
  <!-- Lava glow patches -->
  <circle cx="100" cy="220" r="30" fill="url(#lavaGlow)"/>
  <circle cx="350" cy="240" r="40" fill="url(#lavaGlow)"/>
  <circle cx="600" cy="215" r="35" fill="url(#lavaGlow)"/>
  <circle cx="750" cy="245" r="25" fill="url(#lavaGlow)"/>
  <!-- Lava rock blocks -->
  <rect x="0"   y="210" width="32" height="16" fill="#2a1005" stroke="#1a0800" stroke-width="0.5"/>
  <rect x="64"  y="210" width="32" height="16" fill="#2a1005" stroke="#1a0800" stroke-width="0.5"/>
  <rect x="160" y="215" width="32" height="16" fill="#2a1005" stroke="#1a0800" stroke-width="0.5"/>
  <rect x="256" y="210" width="32" height="16" fill="#2a1005" stroke="#1a0800" stroke-width="0.5"/>
  <rect x="352" y="218" width="32" height="16" fill="#2a1005" stroke="#1a0800" stroke-width="0.5"/>
  <rect x="448" y="210" width="32" height="16" fill="#2a1005" stroke="#1a0800" stroke-width="0.5"/>
  <rect x="544" y="215" width="32" height="16" fill="#2a1005" stroke="#1a0800" stroke-width="0.5"/>
  <rect x="640" y="210" width="32" height="16" fill="#2a1005" stroke="#1a0800" stroke-width="0.5"/>
  <rect x="736" y="218" width="32" height="16" fill="#2a1005" stroke="#1a0800" stroke-width="0.5"/>

  <!-- Hellstone ore -->
  <rect x="44"  y="213" width="8" height="8" fill="#ff2200" opacity="0.8"/>
  <rect x="200" y="217" width="8" height="8" fill="#ff4400" opacity="0.8"/>
  <rect x="400" y="213" width="8" height="8" fill="#ff2200" opacity="0.8"/>
  <rect x="580" y="218" width="8" height="8" fill="#ff4400" opacity="0.8"/>
  <rect x="720" y="213" width="8" height="8" fill="#ff2200" opacity="0.8"/>

  <!-- === TREES (pixel art) === -->
  <!-- Tree 1 - left -->
  <rect x="60"  y="124" width="8" height="32" fill="#6b3a12"/>
  <rect x="46"  y="102" width="36" height="10" fill="#2d6b1a"/>
  <rect x="50"  y="94"  width="28" height="10" fill="#3a8a22"/>
  <rect x="54"  y="86"  width="20" height="10" fill="#4aaa2a"/>
  <rect x="58"  y="78"  width="12" height="10" fill="#5acc32"/>
  <rect x="62"  y="70"  width="4"  height="10" fill="#6aee3a"/>
  <!-- Tree roots -->
  <rect x="54"  y="154" width="4" height="4" fill="#5c3a1a"/>
  <rect x="72"  y="154" width="4" height="4" fill="#5c3a1a"/>

  <!-- Tree 2 - slightly right of left -->
  <rect x="168" y="130" width="8" height="26" fill="#6b3a12"/>
  <rect x="154" y="108" width="36" height="10" fill="#2d6b1a"/>
  <rect x="158" y="100" width="28" height="10" fill="#3a8a22"/>
  <rect x="162" y="92"  width="20" height="10" fill="#4aaa2a"/>
  <rect x="166" y="84"  width="12" height="10" fill="#5acc32"/>

  <!-- Tree 3 - right side -->
  <rect x="610" y="126" width="8" height="30" fill="#6b3a12"/>
  <rect x="596" y="104" width="36" height="10" fill="#2d6b1a"/>
  <rect x="600" y="96"  width="28" height="10" fill="#3a8a22"/>
  <rect x="604" y="88"  width="20" height="10" fill="#4aaa2a"/>
  <rect x="608" y="80"  width="12" height="10" fill="#5acc32"/>
  <rect x="612" y="72"  width="4"  height="10" fill="#6aee3a"/>

  <!-- Tree 4 - far right -->
  <rect x="726" y="130" width="8" height="26" fill="#6b3a12"/>
  <rect x="712" y="108" width="36" height="10" fill="#2d6b1a"/>
  <rect x="716" y="100" width="28" height="10" fill="#3a8a22"/>
  <rect x="720" y="92"  width="20" height="10" fill="#4aaa2a"/>
  <rect x="724" y="84"  width="12" height="10" fill="#5acc32"/>

  <!-- === PLAYER CHARACTER (center, detailed) === -->
  <!-- Shadow -->
  <ellipse cx="404" cy="158" rx="14" ry="3" fill="black" opacity="0.4"/>
  <!-- Legs -->
  <rect x="390" y="138" width="10" height="18" fill="#2244aa"/>
  <rect x="402" y="138" width="10" height="18" fill="#2244aa"/>
  <!-- Boots -->
  <rect x="388" y="152" width="12" height="6"  fill="#aa6600"/>
  <rect x="402" y="152" width="12" height="6"  fill="#aa6600"/>
  <!-- Belt line -->
  <rect x="386" y="136" width="30" height="3"  fill="#c8860a"/>
  <!-- Body armor -->
  <rect x="386" y="112" width="30" height="26" fill="#3366cc"/>
  <!-- Armor detail lines -->
  <rect x="386" y="116" width="30" height="2"  fill="#4488ee" opacity="0.5"/>
  <rect x="386" y="122" width="30" height="2"  fill="#4488ee" opacity="0.5"/>
  <rect x="386" y="128" width="30" height="2"  fill="#4488ee" opacity="0.5"/>
  <!-- Chest emblem -->
  <rect x="396" y="118" width="10" height="10" fill="#c8860a" opacity="0.8"/>
  <rect x="398" y="120" width="6"  height="6"  fill="#ffe066"/>
  <!-- Shoulders -->
  <rect x="382" y="112" width="8"  height="10" fill="#4477dd"/>
  <rect x="412" y="112" width="8"  height="10" fill="#4477dd"/>
  <!-- Head -->
  <rect x="389" y="94"  width="24" height="20" fill="#f5c8a0"/>
  <!-- Hair under helmet -->
  <rect x="389" y="90"  width="24" height="6"  fill="#8B4513"/>
  <!-- Helmet -->
  <rect x="387" y="88"  width="28" height="10" fill="#4477dd"/>
  <rect x="387" y="86"  width="28" height="4"  fill="#5588ee"/>
  <!-- Helmet visor line -->
  <rect x="389" y="90"  width="24" height="3"  fill="#88aaff" opacity="0.5"/>
  <!-- Eyes -->
  <rect x="393" y="100" width="4"  height="4"  fill="#222"/>
  <rect x="405" y="100" width="4"  height="4"  fill="#222"/>
  <!-- Eye shine -->
  <rect x="394" y="100" width="2"  height="2"  fill="white" opacity="0.8"/>
  <rect x="406" y="100" width="2"  height="2"  fill="white" opacity="0.8"/>
  <!-- Mouth -->
  <rect x="396" y="106" width="10" height="2"  fill="#cc8866"/>

  <!-- === WEAPONS === -->
  <!-- Sword (Terra Blade style - glowing green) -->
  <rect x="418" y="82"  width="6"  height="44" fill="#88ddaa" filter="url(#pixelGlow)"/>
  <rect x="416" y="82"  width="6"  height="44" fill="#44cc88"/>
  <rect x="414" y="82"  width="4"  height="4"  fill="#66ee99" opacity="0.8"/><!-- tip -->
  <rect x="409" y="108" width="18" height="5"  fill="#c8860a"/><!-- guard -->
  <rect x="411" y="107" width="14" height="3"  fill="#ffe066"/><!-- guard shine -->
  <rect x="419" y="113" width="4"  height="10" fill="#8B6914"/><!-- handle -->
  <!-- Sword glow effect -->
  <rect x="415" y="84"  width="8"  height="42" fill="#44ee88" opacity="0.15" filter="url(#pixelGlow)"/>

  <!-- Pickaxe (left hand) -->
  <rect x="368" y="114" width="20" height="5"  fill="#8B6914"/><!-- handle -->
  <rect x="350" y="106" width="12" height="12" fill="#aaaaaa"/><!-- head -->
  <rect x="348" y="108" width="5"  height="8"  fill="#cccccc"/><!-- blade -->
  <rect x="360" y="104" width="4"  height="4"  fill="#bbbbbb"/><!-- top spike -->

  <!-- === BACKGROUND STRUCTURES === -->
  <!-- Dungeon (right side, dark stone) -->
  <rect x="680" y="110" width="60" height="46" fill="#2a2a4a" stroke="#444" stroke-width="1"/>
  <rect x="704" y="130" width="12" height="26" fill="#1a1a2a"/><!-- door -->
  <rect x="702" y="128" width="16" height="4"  fill="#3a3a5a"/><!-- door header -->
  <!-- Dungeon window -->
  <rect x="684" y="116" width="10" height="10" fill="#111133"/>
  <rect x="686" y="118" width="6"  height="6"  fill="#2233aa" opacity="0.4"/>
  <!-- Dungeon torch -->
  <rect x="698" y="124" width="4"  height="8"  fill="#8B6914"/>
  <rect x="698" y="120" width="4"  height="6"  fill="#ff8800" opacity="0.9" filter="url(#pixelGlow)"/>
  <rect x="699" y="118" width="2"  height="3"  fill="#ffcc00"/>

  <!-- Merchant house (left side) -->
  <rect x="220" y="122" width="80" height="34" fill="#8B6914" stroke="#6b4a10" stroke-width="1"/>
  <!-- Roof -->
  <polygon points="214,122 260,100 306,122" fill="#6b4a10"/>
  <polygon points="218,122 260,103 302,122" fill="#7a5518"/>
  <!-- Windows -->
  <rect x="228" y="130" width="14" height="12" fill="#88ccff" opacity="0.4"/>
  <rect x="258" y="130" width="14" height="12" fill="#88ccff" opacity="0.4"/>
  <!-- Window frames -->
  <rect x="228" y="130" width="14" height="12" fill="none" stroke="#8B6914" stroke-width="1.5"/>
  <rect x="258" y="130" width="14" height="12" fill="none" stroke="#8B6914" stroke-width="1.5"/>
  <!-- Door -->
  <rect x="244" y="136" width="12" height="20" fill="#5c3a1a"/>
  <rect x="249" y="141" width="3"  height="3"  fill="#c8860a"/><!-- handle -->
  <!-- House torch left -->
  <rect x="221" y="126" width="3" height="6" fill="#8B6914"/>
  <rect x="221" y="122" width="3" height="5" fill="#ff8800" opacity="0.9"/>
  <!-- House torch right -->
  <rect x="296" y="126" width="3" height="6" fill="#8B6914"/>
  <rect x="296" y="122" width="3" height="5" fill="#ff8800" opacity="0.9"/>

  <!-- Small cave opening -->
  <ellipse cx="490" cy="157" rx="18" ry="10" fill="#0a0808"/>
  <rect x="474" y="153" width="32" height="10" fill="#0a0808"/>
  <!-- Cave gems glowing -->
  <circle cx="480" cy="165" r="3" fill="#cc44ff" opacity="0.8" filter="url(#pixelGlow)"/>
  <circle cx="500" cy="168" r="2" fill="#4444ff" opacity="0.8" filter="url(#pixelGlow)"/>

  <!-- === GRASS DECORATIONS === -->
  <!-- Flowers and bushes -->
  <rect x="100" y="150" width="4" height="6" fill="#4aaa2a"/>
  <rect x="98"  y="148" width="8" height="4" fill="#ff4488"/><!-- flower -->
  <rect x="320" y="150" width="4" height="6" fill="#4aaa2a"/>
  <rect x="318" y="148" width="8" height="4" fill="#ffdd44"/>
  <rect x="550" y="150" width="4" height="6" fill="#4aaa2a"/>
  <rect x="548" y="148" width="8" height="4" fill="#ff4488"/>
  <!-- Mushrooms -->
  <rect x="450" y="150" width="4" height="6" fill="#cc8866"/>
  <rect x="446" y="146" width="12" height="6" fill="#ff4422"/>
  <rect x="448" y="144" width="8"  height="4" fill="#ff6644"/>
  <!-- Slime enemy (green blob) -->
  <ellipse cx="560" cy="152" rx="10" ry="7" fill="#22cc44"/>
  <rect x="554" y="148" width="12" height="8" fill="#22cc44"/>
  <circle cx="556" cy="149" r="2" fill="black"/><!-- eye -->
  <circle cx="564" cy="149" r="2" fill="black"/><!-- eye -->
  <circle cx="557" cy="148" r="1" fill="white" opacity="0.8"/>
  <circle cx="565" cy="148" r="1" fill="white" opacity="0.8"/>

  <!-- === UI OVERLAY FRAME === -->
  <!-- Outer border - gold Terraria style -->
  <rect x="0" y="0" width="800" height="280" fill="none" stroke="#c8860a" stroke-width="4"/>
  <!-- Inner border -->
  <rect x="3" y="3" width="794" height="274" fill="none" stroke="#8B5A00" stroke-width="1" opacity="0.6"/>

  <!-- Corner ornaments top-left -->
  <rect x="0"  y="0"  width="24" height="4"  fill="#c8860a"/>
  <rect x="0"  y="0"  width="4"  height="24" fill="#c8860a"/>
  <rect x="6"  y="6"  width="12" height="3"  fill="#ffe066"/>
  <rect x="6"  y="6"  width="3"  height="12" fill="#ffe066"/>

  <!-- Corner ornaments top-right -->
  <rect x="776" y="0"  width="24" height="4"  fill="#c8860a"/>
  <rect x="796" y="0"  width="4"  height="24" fill="#c8860a"/>
  <rect x="782" y="6"  width="12" height="3"  fill="#ffe066"/>
  <rect x="797" y="6"  width="3"  height="12" fill="#ffe066"/>

  <!-- Corner ornaments bottom-left -->
  <rect x="0"  y="276" width="24" height="4"  fill="#c8860a"/>
  <rect x="0"  y="256" width="4"  height="24" fill="#c8860a"/>
  <rect x="6"  y="271" width="12" height="3"  fill="#ffe066"/>
  <rect x="6"  y="262" width="3"  height="12" fill="#ffe066"/>

  <!-- Corner ornaments bottom-right -->
  <rect x="776" y="276" width="24" height="4"  fill="#c8860a"/>
  <rect x="796" y="256" width="4"  height="24" fill="#c8860a"/>
  <rect x="782" y="271" width="12" height="3"  fill="#ffe066"/>
  <rect x="797" y="262" width="3"  height="12" fill="#ffe066"/>

  <!-- === TITLE TEXT PANEL === -->
  <!-- Dark panel behind text for readability -->
  <rect x="270" y="20" width="260" height="70" fill="#000000" opacity="0.55" rx="3"/>
  <rect x="270" y="20" width="260" height="70" fill="none" stroke="#c8860a" stroke-width="1" rx="3" opacity="0.6"/>

  <!-- Title shadow -->
  <text x="402" y="58" text-anchor="middle"
        font-family="'Courier New', Courier, monospace"
        font-size="32" font-weight="bold"
        fill="#000000" opacity="0.6" letter-spacing="2">Jhon Zuluaga</text>

  <!-- Title main -->
  <text x="400" y="56" text-anchor="middle"
        font-family="'Courier New', Courier, monospace"
        font-size="32" font-weight="bold"
        fill="url(#goldGrad)" filter="url(#textGlow)" letter-spacing="2">Jhon Zuluaga</text>

  <!-- Subtitle -->
  <text x="400" y="78" text-anchor="middle"
        font-family="'Courier New', Courier, monospace"
        font-size="12" fill="url(#blueGrad)" letter-spacing="5">BACKEND  -  AI  -  RAG</text>

  <!-- Hardmode badge -->
  <rect x="330" y="82" width="140" height="16" fill="#440000" opacity="0.8" rx="2"/>
  <rect x="330" y="82" width="140" height="16" fill="none"    stroke="#cc2222" stroke-width="1" rx="2"/>
  <text x="400" y="93" text-anchor="middle"
        font-family="'Courier New', Courier, monospace"
        font-size="10" fill="#ff4444" letter-spacing="2">-- HARDMODE ENABLED --</text>

  <!-- HP display top-left -->
  <rect x="8" y="8" width="120" height="36" fill="#000000" opacity="0.65" rx="2"/>
  <rect x="8" y="8" width="120" height="36" fill="none" stroke="#cc2222" stroke-width="1" rx="2"/>
  <text x="14" y="22" font-family="'Courier New', monospace" font-size="10" fill="#ff6b6b">HP</text>
  <rect x="28" y="14" width="94" height="10" fill="#2a0808" rx="1"/>
  <rect x="28" y="14" width="75" height="10" fill="#cc2222" rx="1"/>
  <rect x="28" y="14" width="75" height="4"  fill="#ff6b6b" opacity="0.3" rx="1"/>
  <text x="14" y="36" font-family="'Courier New', monospace" font-size="10" fill="#ffaaaa">500 / 500</text>

  <!-- MP display top-left -->
  <rect x="8" y="48" width="120" height="36" fill="#000000" opacity="0.65" rx="2"/>
  <rect x="8" y="48" width="120" height="36" fill="none" stroke="#2266cc" stroke-width="1" rx="2"/>
  <text x="14" y="62" font-family="'Courier New', monospace" font-size="10" fill="#4dabf7">MP</text>
  <rect x="28" y="54" width="94" height="10" fill="#08082a" rx="1"/>
  <rect x="28" y="54" width="60" height="10" fill="#1a44cc" rx="1"/>
  <rect x="28" y="54" width="60" height="4"  fill="#4dabf7" opacity="0.3" rx="1"/>
  <text x="14" y="76" font-family="'Courier New', monospace" font-size="10" fill="#aaccff">200 / 400</text>

  <!-- Scanline overlay for CRT effect -->
  <rect width="800" height="280" fill="url(#scanlines)" opacity="0.4"/>
</svg>
